<?xml version="1.0" encoding="UTF-8"?>
<svg width="70px" height="193px" viewBox="0 0 70 193" version="1.1" xmlns="http://www.w3.org/2000/svg" xmlns:xlink="http://www.w3.org/1999/xlink">
    <!-- Generator: Sketch 61.2 (89653) - https://sketch.com -->
    <title>Untitled</title>
    <desc>Created with Sketch.</desc>
    <g id="Page-1" stroke="none" stroke-width="1" fill="none" fill-rule="evenodd">
        <g id="new_logo_alt" transform="translate(-512.000000, 0.000000)" fill="#FFD600" fill-rule="nonzero">
            <path d="M68.4185599,2.84217094e-14 L68.4185599,23.4931199 L50.2835199,23.4931199 L43.2767999,30.4998399 L43.2767999,79.7529598 L28.2329599,95.2089598 L28.2329599,96.8575998 L43.2767999,112.3136 L43.2767999,161.7728 L50.2835199,168.77952 L68.4185599,168.77952 L68.4185599,192.27264 L37.9187199,192.27264 L16.07424,170.42816 L16.07424,119.11424 L0,102.62784 L0,89.4387198 L16.07424,72.9523198 L16.07424,21.84448 L37.9187199,2.84217094e-14 L68.4185599,2.84217094e-14 Z M543.40864,2.84217094e-14 L565.25312,21.84448 L565.25312,72.9523198 L581.32736,89.4387198 L581.32736,102.62784 L565.25312,119.11424 L565.25312,170.42816 L543.40864,192.27264 L512.9088,192.27264 L512.9088,168.77952 L531.04384,168.77952 L538.05056,161.7728 L538.05056,112.3136 L553.0944,96.8575998 L553.0944,95.2089598 L538.05056,79.7529598 L538.05056,30.4998399 L531.04384,23.4931199 L512.9088,23.4931199 L512.9088,2.84217094e-14 L543.40864,2.84217094e-14 Z" id="{--}"></path>
        </g>
    </g>
</svg>