<?xml version="1.0" encoding="UTF-8"?>
<svg width="69px" height="192px" viewBox="0 0 69 192" version="1.1" xmlns="http://www.w3.org/2000/svg" xmlns:xlink="http://www.w3.org/1999/xlink">
    <!-- Generator: Sketch 61.2 (89653) - https://sketch.com -->
    <title>Untitled</title>
    <desc>Created with Sketch.</desc>
    <g id="Page-1" stroke="none" stroke-width="1" fill="none" fill-rule="evenodd">
        <g id="new_logo_alt" transform="translate(0.000000, -1.000000)" fill="#FFD600" fill-rule="nonzero">
            <path d="M68.4185599,1 L68.4185599,24.4931199 L50.2835199,24.4931199 L43.2767999,31.4998399 L43.2767999,80.7529598 L28.2329599,96.2089598 L28.2329599,97.8575998 L43.2767999,113.3136 L43.2767999,162.7728 L50.2835199,169.77952 L68.4185599,169.77952 L68.4185599,193.27264 L37.9187199,193.27264 L16.07424,171.42816 L16.07424,120.11424 L0,103.62784 L0,90.4387198 L16.07424,73.9523198 L16.07424,22.84448 L37.9187199,1 L68.4185599,1 Z M543.40864,1 L565.25312,22.84448 L565.25312,73.9523198 L581.32736,90.4387198 L581.32736,103.62784 L565.25312,120.11424 L565.25312,171.42816 L543.40864,193.27264 L512.9088,193.27264 L512.9088,169.77952 L531.04384,169.77952 L538.05056,162.7728 L538.05056,113.3136 L553.0944,97.8575998 L553.0944,96.2089598 L538.05056,80.7529598 L538.05056,31.4998399 L531.04384,24.4931199 L512.9088,24.4931199 L512.9088,1 L543.40864,1 Z" id="{--}"></path>
        </g>
    </g>
</svg>