<?xml version="1.0" encoding="UTF-8"?>
<svg width="585px" height="102px" viewBox="0 0 585 102" version="1.1" xmlns="http://www.w3.org/2000/svg" xmlns:xlink="http://www.w3.org/1999/xlink">
    <!-- Generator: Sketch 61.2 (89653) - https://sketch.com -->
    <title>Untitled</title>
    <desc>Created with Sketch.</desc>
    <g id="Page-1" stroke="none" stroke-width="1" fill="none" fill-rule="evenodd">
        <g id="new_logo_alt" transform="translate(-159.000000, -161.000000)" fill-rule="nonzero">
            <path d="M726.939133,163.385346 L742.293913,178.754464 L742.293913,193.127436 L723.242612,193.127436 L723.242612,184.589037 L718.550874,179.892917 L690.400444,179.892917 L685.708706,184.589037 L685.708706,199.246621 L690.400444,203.942741 L728.076525,203.942741 L743.431304,219.311859 L743.431304,247.346269 L727.792177,263 L681.727837,263 L666.373057,247.630882 L666.373057,233.400217 L685.424358,233.400217 L685.424358,241.796309 L690.116096,246.492429 L719.546091,246.492429 L724.380003,241.654003 L724.380003,225.146431 L719.688265,220.450312 L682.012185,220.450312 L666.657405,205.081194 L666.657405,178.754464 L682.012185,163.385346 L726.939133,163.385346 Z M520.493376,163.385346 L545.231632,239.946323 L545.51598,239.946323 L570.254237,163.385346 L590.158581,163.385346 L554.757283,263 L535.99033,263 L500.589032,163.385346 L520.493376,163.385346 Z M223.238683,163.385346 L240.29955,180.462144 L240.29955,245.923202 L223.238683,263 L159.544782,263 L159.544782,163.385346 L223.238683,163.385346 Z M408.849785,161.838535 L408.849785,178.203799 L356.245446,178.203799 L356.245446,203.392076 L404.726742,203.392076 L404.726742,219.472727 L356.245446,219.472727 L356.245446,245.087924 L408.849785,245.087924 L408.849785,261.453189 L336.909798,261.453189 L336.909798,161.838535 L408.849785,161.838535 Z M213.713033,179.892917 L178.88043,179.892917 L178.88043,246.492429 L213.713033,246.492429 L220.963901,239.23479 L220.963901,187.150556 L213.713033,179.892917 Z M728.218698,35 L743.431304,50.369118 L743.431304,80.5381275 L733.76348,90.3572863 L744,101.599512 L744,134.614654 L724.664351,134.614654 L724.664351,106.011018 L716.133918,96.4764722 L685.14001,96.4764722 L685.14001,134.614654 L665.804362,134.614654 L665.804362,35 L728.218698,35 Z M634.473564,35 L634.473564,51.3652646 L581.869225,51.3652646 L581.869225,76.5535414 L630.350521,76.5535414 L630.350521,92.6341927 L581.869225,92.6341927 L581.869225,118.249389 L634.473564,118.249389 L634.473564,134.614654 L562.533576,134.614654 L562.533576,35 L634.473564,35 Z M490.800668,35 L490.800668,118.249389 L540.561529,118.249389 L540.561529,134.614654 L471.46502,134.614654 L471.46502,35 L490.800668,35 Z M427.227305,35 L444.288172,52.0767978 L444.288172,117.537856 L427.227305,134.614654 L363.533404,134.614654 L363.533404,35 L427.227305,35 Z M276.699156,35 L321.057409,102.595658 L321.341757,102.595658 L321.341757,35 L339.966536,35 L339.966536,134.614654 L322.621322,134.614654 L278.263069,67.1613026 L277.978721,67.1613026 L277.978721,134.614654 L259.353942,134.614654 L259.353942,35 L276.699156,35 Z M208.026077,35 L244.422593,134.614654 L224.802596,134.614654 L216.698685,112.557123 L181.723908,112.557123 L173.619997,134.614654 L154,134.614654 L190.396515,35 L208.026077,35 Z M417.701655,51.5075712 L382.869052,51.5075712 L382.869052,118.107083 L417.701655,118.107083 L424.952523,110.849444 L424.952523,58.7652103 L417.701655,51.5075712 Z M199.211296,58.7652103 L198.926949,58.7652103 L186.131299,96.6187788 L212.433468,96.6187788 L199.211296,58.7652103 Z M719.403917,51.2229579 L685.14001,51.2229579 L685.14001,80.5381275 L719.403917,80.5381275 L724.380003,75.5573948 L724.380003,56.2036906 L719.403917,51.2229579 Z" id="Andler-Devs" fill="#F5F5F5"></path>
            <path d="M105.806624,0 L105.806624,36.2893889 L77.7614946,36.2893889 L66.9258765,47.11254 L66.9258765,123.192926 L43.661167,147.067524 L43.661167,149.614148 L66.9258765,173.488746 L66.9258765,249.88746 L77.7614946,260.710611 L105.806624,260.710611 L105.806624,297 L58.6398156,297 L24.8581828,263.257235 L24.8581828,183.993569 L0,158.527331 L0,138.154341 L24.8581828,112.688103 L24.8581828,33.7427653 L58.6398156,0 L105.806624,0 Z M840.360184,0 L874.141817,33.7427653 L874.141817,112.688103 L899,138.154341 L899,158.527331 L874.141817,183.993569 L874.141817,263.257235 L840.360184,297 L793.193376,297 L793.193376,260.710611 L821.238505,260.710611 L832.074123,249.88746 L832.074123,173.488746 L855.338833,149.614148 L855.338833,147.067524 L832.074123,123.192926 L832.074123,47.11254 L821.238505,36.2893889 L793.193376,36.2893889 L793.193376,0 L840.360184,0 Z" id="{--}" fill="#FFD600"></path>
        </g>
    </g>
</svg>