<?xml version="1.0" encoding="UTF-8"?>
<svg width="57px" height="97px" viewBox="0 0 57 97" version="1.1" xmlns="http://www.w3.org/2000/svg" xmlns:xlink="http://www.w3.org/1999/xlink">
    <!-- Generator: Sketch 61.2 (89653) - https://sketch.com -->
    <title>new_logo_alt</title>
    <desc>Created with Sketch.</desc>
    <g id="Page-1" stroke="none" stroke-width="1" fill="none" fill-rule="evenodd">
        <path d="M52.7390052,76.8492264 L52.7390052,87.1532264 L8.39500521,87.1532264 L8.39500521,76.8492264 L52.7390052,76.8492264 Z M-26.04,11.5292264 L-2.488,75.9292264 L-15.184,75.9292264 L-20.428,61.6692264 L-43.06,61.6692264 L-48.304,75.9292264 L-61,75.9292264 L-37.448,11.5292264 L-26.04,11.5292264 Z M99.2053731,11.4014891 L110.245373,22.4414891 L110.245373,64.7614891 L99.2053731,75.8014891 L57.9893731,75.8014891 L57.9893731,11.4014891 L99.2053731,11.4014891 Z M284.318184,11 L294.254184,20.936 L294.254184,30.228 L281.926184,30.228 L281.926184,24.708 L278.890184,21.672 L260.674184,21.672 L257.638184,24.708 L257.638184,34.184 L260.674184,37.22 L285.054184,37.22 L294.990184,47.156 L294.990184,65.28 L284.870184,75.4 L255.062184,75.4 L245.126184,65.464 L245.126184,56.264 L257.454184,56.264 L257.454184,61.692 L260.490184,64.728 L279.534184,64.728 L282.662184,61.6 L282.662184,50.928 L279.626184,47.892 L255.246184,47.892 L245.310184,37.956 L245.310184,20.936 L255.246184,11 L284.318184,11 Z M191.480597,11 L207.488597,60.496 L207.672597,60.496 L223.680597,11 L236.560597,11 L213.652597,75.4 L201.508597,75.4 L178.600597,11 L191.480597,11 Z M167.422381,11 L167.422381,21.58 L133.382381,21.58 L133.382381,37.864 L164.754381,37.864 L164.754381,48.26 L133.382381,48.26 L133.382381,64.82 L167.422381,64.82 L167.422381,75.4 L120.870381,75.4 L120.870381,11 L167.422381,11 Z M93.0413731,22.0734891 L70.5013731,22.0734891 L70.5013731,65.1294891 L93.0413731,65.1294891 L97.7333731,60.4374891 L97.7333731,26.7654891 L93.0413731,22.0734891 Z M-31.744,26.8932264 L-31.928,26.8932264 L-40.208,51.3652264 L-23.188,51.3652264 L-31.744,26.8932264 Z" id="A_DEVS" stroke="#F5F5F5" stroke-width="2" fill="#F5F5F5" stroke-linecap="square"></path>
        <path d="M-83.7708371,1 L-83.7708371,12.7533873 L-92.8436272,12.7533873 L-96.3490235,16.2587835 L-96.3490235,40.8996568 L-103.875315,48.6321484 L-103.875315,49.4569475 L-96.3490235,57.1894391 L-96.3490235,81.9334123 L-92.8436272,85.4388085 L-83.7708371,85.4388085 L-83.7708371,97.1921958 L-99.0296205,97.1921958 L-109.958209,86.2636077 L-109.958209,60.5917355 L-118,52.3437444 L-118,45.7453515 L-109.958209,37.4973605 L-109.958209,11.9285882 L-99.0296205,1 L-83.7708371,1 Z M332.712285,1 L343.640873,11.9285882 L343.640873,37.4973605 L351.682665,45.7453515 L351.682665,52.3437444 L343.640873,60.5917355 L343.640873,86.2636077 L332.712285,97.1921958 L317.453502,97.1921958 L317.453502,85.4388085 L326.526292,85.4388085 L330.031688,81.9334123 L330.031688,57.1894391 L337.55798,49.4569475 L337.55798,48.6321484 L330.031688,40.8996568 L330.031688,16.2587835 L326.526292,12.7533873 L317.453502,12.7533873 L317.453502,1 L332.712285,1 Z" id="{--}" fill="#FFD600"></path>
    </g>
</svg>