<?xml version="1.0" encoding="UTF-8"?>
<svg width="64px" height="97px" viewBox="0 0 64 97" version="1.1" xmlns="http://www.w3.org/2000/svg" xmlns:xlink="http://www.w3.org/1999/xlink">
    <!-- Generator: Sketch 61.2 (89653) - https://sketch.com -->
    <title>new_logo_alt</title>
    <desc>Created with Sketch.</desc>
    <g id="Page-1" stroke="none" stroke-width="1" fill="none" fill-rule="evenodd">
        <path d="M116.739005,76.8492264 L116.739005,87.1532264 L72.3950052,87.1532264 L72.3950052,76.8492264 L116.739005,76.8492264 Z M37.96,11.5292264 L61.512,75.9292264 L48.816,75.9292264 L43.572,61.6692264 L20.94,61.6692264 L15.696,75.9292264 L3,75.9292264 L26.552,11.5292264 L37.96,11.5292264 Z M163.205373,11.4014891 L174.245373,22.4414891 L174.245373,64.7614891 L163.205373,75.8014891 L121.989373,75.8014891 L121.989373,11.4014891 L163.205373,11.4014891 Z M348.318184,11 L358.254184,20.936 L358.254184,30.228 L345.926184,30.228 L345.926184,24.708 L342.890184,21.672 L324.674184,21.672 L321.638184,24.708 L321.638184,34.184 L324.674184,37.22 L349.054184,37.22 L358.990184,47.156 L358.990184,65.28 L348.870184,75.4 L319.062184,75.4 L309.126184,65.464 L309.126184,56.264 L321.454184,56.264 L321.454184,61.692 L324.490184,64.728 L343.534184,64.728 L346.662184,61.6 L346.662184,50.928 L343.626184,47.892 L319.246184,47.892 L309.310184,37.956 L309.310184,20.936 L319.246184,11 L348.318184,11 Z M255.480597,11 L271.488597,60.496 L271.672597,60.496 L287.680597,11 L300.560597,11 L277.652597,75.4 L265.508597,75.4 L242.600597,11 L255.480597,11 Z M231.422381,11 L231.422381,21.58 L197.382381,21.58 L197.382381,37.864 L228.754381,37.864 L228.754381,48.26 L197.382381,48.26 L197.382381,64.82 L231.422381,64.82 L231.422381,75.4 L184.870381,75.4 L184.870381,11 L231.422381,11 Z M157.041373,22.0734891 L134.501373,22.0734891 L134.501373,65.1294891 L157.041373,65.1294891 L161.733373,60.4374891 L161.733373,26.7654891 L157.041373,22.0734891 Z M32.256,26.8932264 L32.072,26.8932264 L23.792,51.3652264 L40.812,51.3652264 L32.256,26.8932264 Z" id="A_DEVS" stroke="#F5F5F5" stroke-width="2" fill="#F5F5F5" stroke-linecap="square"></path>
        <path d="M-19.7708371,1 L-19.7708371,12.7533873 L-28.8436272,12.7533873 L-32.3490235,16.2587835 L-32.3490235,40.8996568 L-39.8753153,48.6321484 L-39.8753153,49.4569475 L-32.3490235,57.1894391 L-32.3490235,81.9334123 L-28.8436272,85.4388085 L-19.7708371,85.4388085 L-19.7708371,97.1921958 L-35.0296205,97.1921958 L-45.9582087,86.2636077 L-45.9582087,60.5917355 L-54,52.3437444 L-54,45.7453515 L-45.9582087,37.4973605 L-45.9582087,11.9285882 L-35.0296205,1 L-19.7708371,1 Z M396.712285,1 L407.640873,11.9285882 L407.640873,37.4973605 L415.682665,45.7453515 L415.682665,52.3437444 L407.640873,60.5917355 L407.640873,86.2636077 L396.712285,97.1921958 L381.453502,97.1921958 L381.453502,85.4388085 L390.526292,85.4388085 L394.031688,81.9334123 L394.031688,57.1894391 L401.55798,49.4569475 L401.55798,48.6321484 L394.031688,40.8996568 L394.031688,16.2587835 L390.526292,12.7533873 L381.453502,12.7533873 L381.453502,1 L396.712285,1 Z" id="{--}" fill="#FFD600"></path>
    </g>
</svg>