<?xml version="1.0" encoding="UTF-8"?>
<svg width="35px" height="97px" viewBox="0 0 35 97" version="1.1" xmlns="http://www.w3.org/2000/svg" xmlns:xlink="http://www.w3.org/1999/xlink">
    <!-- Generator: Sketch 61.2 (89653) - https://sketch.com -->
    <title>new_logo_alt</title>
    <desc>Created with Sketch.</desc>
    <g id="Page-1" stroke="none" stroke-width="1" fill="none" fill-rule="evenodd">
        <path d="M-442.612169,-0.129508879 L-442.612169,11.6238784 L-451.68496,11.6238784 L-455.190356,15.1292746 L-455.190356,39.7701479 L-462.716648,47.5026395 L-462.716648,48.3274386 L-455.190356,56.0599303 L-455.190356,80.8039035 L-451.68496,84.3092997 L-442.612169,84.3092997 L-442.612169,96.0626869 L-457.870953,96.0626869 L-468.799541,85.1340988 L-468.799541,59.4622266 L-476.841332,51.2142355 L-476.841332,44.6158427 L-468.799541,36.3678516 L-468.799541,10.7990793 L-457.870953,-0.129508879 L-442.612169,-0.129508879 Z M15.8709528,-0.129508879 L26.799541,10.7990793 L26.799541,36.3678516 L34.8413323,44.6158427 L34.8413323,51.2142355 L26.799541,59.4622266 L26.799541,85.1340988 L15.8709528,96.0626869 L0.612169374,96.0626869 L0.612169374,84.3092997 L9.68495955,84.3092997 L13.1903558,80.8039035 L13.1903558,56.0599303 L20.7166476,48.3274386 L20.7166476,47.5026395 L13.1903558,39.7701479 L13.1903558,15.1292746 L9.68495955,11.6238784 L0.612169374,11.6238784 L0.612169374,-0.129508879 L15.8709528,-0.129508879 Z" id="{--}" fill="#FFD600"></path>
    </g>
</svg>