<?xml version="1.0" encoding="UTF-8"?>
<svg width="35px" height="97px" viewBox="0 0 35 97" version="1.1" xmlns="http://www.w3.org/2000/svg" xmlns:xlink="http://www.w3.org/1999/xlink">
    <!-- Generator: Sketch 61.2 (89653) - https://sketch.com -->
    <title>new_logo_alt</title>
    <desc>Created with Sketch.</desc>
    <g id="Page-1" stroke="none" stroke-width="1" fill="none" fill-rule="evenodd">
        <path d="M34.3878306,-0.129508879 L34.3878306,11.6238784 L25.3150405,11.6238784 L21.8096442,15.1292746 L21.8096442,39.7701479 L14.2833524,47.5026395 L14.2833524,48.3274386 L21.8096442,56.0599303 L21.8096442,80.8039035 L25.3150405,84.3092997 L34.3878306,84.3092997 L34.3878306,96.0626869 L19.1290472,96.0626869 L8.20045899,85.1340988 L8.20045899,59.4622266 L0.158667699,51.2142355 L0.158667699,44.6158427 L8.20045899,36.3678516 L8.20045899,10.7990793 L19.1290472,-0.129508879 L34.3878306,-0.129508879 Z M492.870953,-0.129508879 L503.799541,10.7990793 L503.799541,36.3678516 L511.841332,44.6158427 L511.841332,51.2142355 L503.799541,59.4622266 L503.799541,85.1340988 L492.870953,96.0626869 L477.612169,96.0626869 L477.612169,84.3092997 L486.68496,84.3092997 L490.190356,80.8039035 L490.190356,56.0599303 L497.716648,48.3274386 L497.716648,47.5026395 L490.190356,39.7701479 L490.190356,15.1292746 L486.68496,11.6238784 L477.612169,11.6238784 L477.612169,-0.129508879 L492.870953,-0.129508879 Z" id="{--}" fill="#FFD600"></path>
    </g>
</svg>