<?xml version="1.0" encoding="UTF-8"?>
<svg width="241px" height="97px" viewBox="0 0 241 97" version="1.1" xmlns="http://www.w3.org/2000/svg" xmlns:xlink="http://www.w3.org/1999/xlink">
    <!-- Generator: Sketch 61.2 (89653) - https://sketch.com -->
    <title>new_logo_alt</title>
    <desc>Created with Sketch.</desc>
    <g id="Page-1" stroke="none" stroke-width="1" fill="none" fill-rule="evenodd">
        <path d="M-4.26099479,76.8492264 L-4.26099479,87.1532264 L-48.6049948,87.1532264 L-48.6049948,76.8492264 L-4.26099479,76.8492264 Z M-83.04,11.5292264 L-59.488,75.9292264 L-72.184,75.9292264 L-77.428,61.6692264 L-100.06,61.6692264 L-105.304,75.9292264 L-118,75.9292264 L-94.448,11.5292264 L-83.04,11.5292264 Z M42.2053731,11.4014891 L53.2453731,22.4414891 L53.2453731,64.7614891 L42.2053731,75.8014891 L0.98937308,75.8014891 L0.98937308,11.4014891 L42.2053731,11.4014891 Z M227.318184,11 L237.254184,20.936 L237.254184,30.228 L224.926184,30.228 L224.926184,24.708 L221.890184,21.672 L203.674184,21.672 L200.638184,24.708 L200.638184,34.184 L203.674184,37.22 L228.054184,37.22 L237.990184,47.156 L237.990184,65.28 L227.870184,75.4 L198.062184,75.4 L188.126184,65.464 L188.126184,56.264 L200.454184,56.264 L200.454184,61.692 L203.490184,64.728 L222.534184,64.728 L225.662184,61.6 L225.662184,50.928 L222.626184,47.892 L198.246184,47.892 L188.310184,37.956 L188.310184,20.936 L198.246184,11 L227.318184,11 Z M134.480597,11 L150.488597,60.496 L150.672597,60.496 L166.680597,11 L179.560597,11 L156.652597,75.4 L144.508597,75.4 L121.600597,11 L134.480597,11 Z M110.422381,11 L110.422381,21.58 L76.3823814,21.58 L76.3823814,37.864 L107.754381,37.864 L107.754381,48.26 L76.3823814,48.26 L76.3823814,64.82 L110.422381,64.82 L110.422381,75.4 L63.8703814,75.4 L63.8703814,11 L110.422381,11 Z M36.0413731,22.0734891 L13.5013731,22.0734891 L13.5013731,65.1294891 L36.0413731,65.1294891 L40.7333731,60.4374891 L40.7333731,26.7654891 L36.0413731,22.0734891 Z M-88.744,26.8932264 L-88.928,26.8932264 L-97.208,51.3652264 L-80.188,51.3652264 L-88.744,26.8932264 Z" id="A_DEVS" stroke="#F5F5F5" stroke-width="2" fill="#F5F5F5" stroke-linecap="square"></path>
        <path d="M-140.770837,1 L-140.770837,12.7533873 L-149.843627,12.7533873 L-153.349023,16.2587835 L-153.349023,40.8996568 L-160.875315,48.6321484 L-160.875315,49.4569475 L-153.349023,57.1894391 L-153.349023,81.9334123 L-149.843627,85.4388085 L-140.770837,85.4388085 L-140.770837,97.1921958 L-156.029621,97.1921958 L-166.958209,86.2636077 L-166.958209,60.5917355 L-175,52.3437444 L-175,45.7453515 L-166.958209,37.4973605 L-166.958209,11.9285882 L-156.029621,1 L-140.770837,1 Z M275.712285,1 L286.640873,11.9285882 L286.640873,37.4973605 L294.682665,45.7453515 L294.682665,52.3437444 L286.640873,60.5917355 L286.640873,86.2636077 L275.712285,97.1921958 L260.453502,97.1921958 L260.453502,85.4388085 L269.526292,85.4388085 L273.031688,81.9334123 L273.031688,57.1894391 L280.55798,49.4569475 L280.55798,48.6321484 L273.031688,40.8996568 L273.031688,16.2587835 L269.526292,12.7533873 L260.453502,12.7533873 L260.453502,1 L275.712285,1 Z" id="{--}" fill="#FFD600"></path>
    </g>
</svg>