<?xml version="1.0" encoding="UTF-8"?>
<svg width="470px" height="96px" viewBox="0 0 470 96" version="1.1" xmlns="http://www.w3.org/2000/svg" xmlns:xlink="http://www.w3.org/1999/xlink">
    <!-- Generator: Sketch 61.2 (89653) - https://sketch.com -->
    <title>new_logo_alt</title>
    <desc>Created with Sketch.</desc>
    <g id="Page-1" stroke="none" stroke-width="1" fill="none" fill-rule="evenodd">
        <path d="M170.739005,75.8492264 L170.739005,86.1532264 L126.395005,86.1532264 L126.395005,75.8492264 L170.739005,75.8492264 Z M91.96,10.5292264 L115.512,74.9292264 L102.816,74.9292264 L97.572,60.6692264 L74.94,60.6692264 L69.696,74.9292264 L57,74.9292264 L80.552,10.5292264 L91.96,10.5292264 Z M217.205373,10.4014891 L228.245373,21.4414891 L228.245373,63.7614891 L217.205373,74.8014891 L175.989373,74.8014891 L175.989373,10.4014891 L217.205373,10.4014891 Z M402.318184,10 L412.254184,19.936 L412.254184,29.228 L399.926184,29.228 L399.926184,23.708 L396.890184,20.672 L378.674184,20.672 L375.638184,23.708 L375.638184,33.184 L378.674184,36.22 L403.054184,36.22 L412.990184,46.156 L412.990184,64.28 L402.870184,74.4 L373.062184,74.4 L363.126184,64.464 L363.126184,55.264 L375.454184,55.264 L375.454184,60.692 L378.490184,63.728 L397.534184,63.728 L400.662184,60.6 L400.662184,49.928 L397.626184,46.892 L373.246184,46.892 L363.310184,36.956 L363.310184,19.936 L373.246184,10 L402.318184,10 Z M309.480597,10 L325.488597,59.496 L325.672597,59.496 L341.680597,10 L354.560597,10 L331.652597,74.4 L319.508597,74.4 L296.600597,10 L309.480597,10 Z M285.422381,10 L285.422381,20.58 L251.382381,20.58 L251.382381,36.864 L282.754381,36.864 L282.754381,47.26 L251.382381,47.26 L251.382381,63.82 L285.422381,63.82 L285.422381,74.4 L238.870381,74.4 L238.870381,10 L285.422381,10 Z M211.041373,21.0734891 L188.501373,21.0734891 L188.501373,64.1294891 L211.041373,64.1294891 L215.733373,59.4374891 L215.733373,25.7654891 L211.041373,21.0734891 Z M86.256,25.8932264 L86.072,25.8932264 L77.792,50.3652264 L94.812,50.3652264 L86.256,25.8932264 Z" id="A_DEVS" stroke="#F5F5F5" stroke-width="2" fill="#F5F5F5" stroke-linecap="square"></path>
        <path d="M34.2291629,1.42108547e-14 L34.2291629,11.7533873 L25.1563728,11.7533873 L21.6509765,15.2587835 L21.6509765,39.8996568 L14.1246847,47.6321484 L14.1246847,48.4569475 L21.6509765,56.1894391 L21.6509765,80.9334123 L25.1563728,84.4388085 L34.2291629,84.4388085 L34.2291629,96.1921958 L18.9703795,96.1921958 L8.04179129,85.2636077 L8.04179129,59.5917355 L2.84217094e-14,51.3437444 L2.84217094e-14,44.7453515 L8.04179129,36.4973605 L8.04179129,10.9285882 L18.9703795,1.42108547e-14 L34.2291629,1.42108547e-14 Z M450.712285,1.42108547e-14 L461.640873,10.9285882 L461.640873,36.4973605 L469.682665,44.7453515 L469.682665,51.3437444 L461.640873,59.5917355 L461.640873,85.2636077 L450.712285,96.1921958 L435.453502,96.1921958 L435.453502,84.4388085 L444.526292,84.4388085 L448.031688,80.9334123 L448.031688,56.1894391 L455.55798,48.4569475 L455.55798,47.6321484 L448.031688,39.8996568 L448.031688,15.2587835 L444.526292,11.7533873 L435.453502,11.7533873 L435.453502,1.42108547e-14 L450.712285,1.42108547e-14 Z" id="{--}" fill="#FFD600"></path>
    </g>
</svg>