<?xml version="1.0" encoding="UTF-8"?>
<svg width="550px" height="194px" viewBox="0 0 550 194" version="1.1" xmlns="http://www.w3.org/2000/svg" xmlns:xlink="http://www.w3.org/1999/xlink">
    <!-- Generator: Sketch 61.2 (89653) - https://sketch.com -->
    <title>new_logo_alt</title>
    <desc>Created with Sketch.</desc>
    <g id="Page-1" stroke="none" stroke-width="1" fill="none" fill-rule="evenodd">
        <path d="M456.318,14.6 L466.162,24.536 L466.162,44.04 L459.906,50.388 L466.53,57.656 L466.53,79 L454.018,79 L454.018,60.508 L448.498,54.344 L428.442,54.344 L428.442,79 L415.93,79 L415.93,14.6 L456.318,14.6 Z M395.656,14.6 L395.656,25.18 L361.616,25.18 L361.616,41.464 L392.988,41.464 L392.988,51.86 L361.616,51.86 L361.616,68.42 L395.656,68.42 L395.656,79 L349.104,79 L349.104,14.6 L395.656,14.6 Z M302.686,14.6 L302.686,68.42 L334.886,68.42 L334.886,79 L290.174,79 L290.174,14.6 L302.686,14.6 Z M261.548,14.6 L272.588,25.64 L272.588,67.96 L261.548,79 L220.332,79 L220.332,14.6 L261.548,14.6 Z M164.142,14.6 L192.846,58.3 L193.03,58.3 L193.03,14.6 L205.082,14.6 L205.082,79 L193.858,79 L165.154,35.392 L164.97,35.392 L164.97,79 L152.918,79 L152.918,14.6 L164.142,14.6 Z M119.704,14.6 L143.256,79 L130.56,79 L125.316,64.74 L102.684,64.74 L97.44,79 L84.744,79 L108.296,14.6 L119.704,14.6 Z M255.384,25.272 L232.844,25.272 L232.844,68.328 L255.384,68.328 L260.076,63.636 L260.076,29.964 L255.384,25.272 Z M114,29.964 L113.816,29.964 L105.536,54.436 L122.556,54.436 L114,29.964 Z M450.614,25.088 L428.442,25.088 L428.442,44.04 L450.614,44.04 L453.834,40.82 L453.834,28.308 L450.614,25.088 Z" id="Andler" fill="#F5F5F5"></path>
        <path d="M455.49,105.6 L465.426,115.536 L465.426,124.828 L453.098,124.828 L453.098,119.308 L450.062,116.272 L431.846,116.272 L428.81,119.308 L428.81,128.784 L431.846,131.82 L456.226,131.82 L466.162,141.756 L466.162,159.88 L456.042,170 L426.234,170 L416.298,160.064 L416.298,150.864 L428.626,150.864 L428.626,156.292 L431.662,159.328 L450.706,159.328 L453.834,156.2 L453.834,145.528 L450.798,142.492 L426.418,142.492 L416.482,132.556 L416.482,115.536 L426.418,105.6 L455.49,105.6 Z M321.9,105.6 L337.908,155.096 L338.092,155.096 L354.1,105.6 L366.98,105.6 L344.072,170 L331.928,170 L309.02,105.6 L321.9,105.6 Z M129.548,105.6 L140.588,116.64 L140.588,158.96 L129.548,170 L88.332,170 L88.332,105.6 L129.548,105.6 Z M249.656,104.6 L249.656,115.18 L215.616,115.18 L215.616,131.464 L246.988,131.464 L246.988,141.86 L215.616,141.86 L215.616,158.42 L249.656,158.42 L249.656,169 L203.104,169 L203.104,104.6 L249.656,104.6 Z M123.384,116.272 L100.844,116.272 L100.844,159.328 L123.384,159.328 L128.076,154.636 L128.076,120.964 L123.384,116.272 Z" id="Devs" stroke="#F5F5F5" stroke-width="2" fill="#F5F5F5" stroke-linecap="square"></path>
        <path d="M68.7548799,0.838720358 L68.7548799,24.3318403 L50.61984,24.3318403 L43.61312,31.3385603 L43.61312,80.5916802 L28.56928,96.0476802 L28.56928,97.6963202 L43.61312,113.15232 L43.61312,162.61152 L50.61984,169.61824 L68.7548799,169.61824 L68.7548799,193.11136 L38.25504,193.11136 L16.41056,171.26688 L16.41056,119.95296 L0.33632007,103.46656 L0.33632007,90.2774402 L16.41056,73.7910402 L16.41056,22.6832003 L38.25504,0.838720358 L68.7548799,0.838720358 Z M511.74496,0.838720358 L533.58944,22.6832003 L533.58944,73.7910402 L549.66368,90.2774402 L549.66368,103.46656 L533.58944,119.95296 L533.58944,171.26688 L511.74496,193.11136 L481.24512,193.11136 L481.24512,169.61824 L499.38016,169.61824 L506.38688,162.61152 L506.38688,113.15232 L521.43072,97.6963202 L521.43072,96.0476802 L506.38688,80.5916802 L506.38688,31.3385603 L499.38016,24.3318403 L481.24512,24.3318403 L481.24512,0.838720358 L511.74496,0.838720358 Z" id="{--}" fill="#FFD600"></path>
    </g>
</svg>