<?xml version="1.0" encoding="UTF-8"?>
<svg width="900px" height="816px" viewBox="0 0 900 816" version="1.1" xmlns="http://www.w3.org/2000/svg" xmlns:xlink="http://www.w3.org/1999/xlink">
    <!-- Generator: Sketch 61.2 (89653) - https://sketch.com -->
    <title>new_logo</title>
    <desc>Created with Sketch.</desc>
    <defs>
        <path d="M503.974888,55.5139254 C523.745684,62.7887863 536.965956,73.2311111 538.237968,75.1008875 C538.884441,76.0511625 541.059544,79.7761402 544.763274,86.2758206 C570.531753,97.2432111 594.282223,112.583187 615.247261,131.451812 C617.758981,123.58673 639.781711,102.751126 684.53728,105.198565 C732.193326,107.804616 759.926238,126.385107 797.512933,171.474596 C835.099629,216.564085 850.152926,295.738794 839.822359,348.272258 C829.491793,400.805722 708.308789,504.079962 670.262238,495.496406 L670.537454,495.550871 C661.263511,511.858373 650.49826,527.057781 638.448568,540.924223 L638.480432,540.929333 C643.245484,542.811231 648.764293,560.518343 649.820404,562.418372 L649.853,562.474 L649.832251,562.493986 C648.458258,563.894678 638.82042,578.823722 627.46626,599.608489 C628.102629,599.761887 628.756283,599.945873 629.425774,600.161559 C649.928278,606.766739 665,638.111617 665,655.115412 C665,672.119207 658.120727,681.885579 644.734347,688.14095 C631.347968,694.396321 602.807997,697.36959 591.925571,692.75527 C591.150325,692.426554 590.250883,692.085231 589.2468,691.732101 C587.561883,699.412431 586.602982,706.662247 586.602982,713.207718 C586.602982,714.017685 448.478974,766 448.478974,766 C448.478974,766 313.576997,715.248704 313.576997,713.207718 C313.576997,706.80405 312.890469,700.120604 311.662392,693.282682 C299.893048,697.122029 273.10699,694.141626 260.265653,688.14095 C246.879273,681.885579 240,672.119207 240,655.115412 C240,638.522286 254.352502,608.27243 274.098362,600.682877 C262.087575,579.307877 252,564.202426 252,562.422876 C252,558.026184 258.765135,540.929333 262.128862,540.929333 C262.179953,540.929333 262.315093,540.92885 262.531736,540.927907 L262.556675,540.930256 C250.547315,527.111039 239.813703,511.967815 230.560617,495.723183 C191.260848,502.004327 72.404136,400.276496 62.1776406,348.272258 C51.8470744,295.738794 66.9003715,216.564085 104.487067,171.474596 C142.073762,126.385107 169.806674,107.804616 217.46272,105.198565 C261.003816,102.817539 283.029077,122.473098 286.508068,130.787319 C308.927606,110.749905 334.510511,94.7429083 362.316262,83.7747366 C363.988362,80.292006 367.056646,75.1008875 367.056646,75.1008875 C367.056646,75.1008875 380.026821,63.6477242 401.807868,55.5139254 C415.382561,50.4446639 433.850774,47.345573 450.229837,47.0271792 C468.50089,46.6720069 488.483734,49.8138017 503.974888,55.5139254 Z M613.129554,627.509423 L612.623147,628.565654 C608.622967,636.943894 604.747504,645.630481 601.262906,654.313538 C608.507665,654.912448 616.685999,655.223077 625.897484,655.115412 C627.456936,655.097185 627.116031,643.718386 615.194516,630.199571 C614.435132,629.338441 613.747045,628.438336 613.129554,627.509423 Z M289.634688,630.39474 L289.451303,630.604484 C277.877341,643.944826 277.558659,655.097367 279.102516,655.115412 C286.853652,655.206009 293.873253,655.000426 300.220838,654.57616 C296.99193,646.339421 293.384672,638.210515 289.634688,630.39474 Z M684.53728,148.922778 C650.246436,145.79066 644.537926,159.32996 643.849364,161.491598 C684.383729,211.103853 709,276.42699 709,348 C709,374.210649 705.698744,399.583137 699.523562,423.652935 C726.76605,388.755486 759.097443,353.95134 757.279622,352.037697 C753.702732,348.272258 771.501944,354.148569 776.282378,314.944624 C778.493816,296.80881 773.964163,258.541277 757.279622,224.580309 C737.897416,185.128311 704.548061,150.750558 684.53728,148.922778 Z M217.46272,148.922778 C197.451939,150.750558 164.102584,185.128311 144.720378,224.580309 C128.035837,258.541277 123.506184,296.80881 125.717622,314.944624 C130.498056,354.148569 148.297268,348.272258 144.720378,352.037697 C142.935147,353.917033 174.085654,387.518122 201.009826,421.77524 C195.132361,398.267454 192,373.531368 192,348 C192,276.028132 216.891395,210.375989 257.82671,160.661135 C256.223694,157.058064 248.710275,146.068634 217.46272,148.922778 Z" id="path-1"></path>
        <filter x="-11.0%" y="-11.1%" width="121.4%" height="123.4%" filterUnits="objectBoundingBox" id="filter-2">
            <feMorphology radius="3" operator="dilate" in="SourceAlpha" result="shadowSpreadOuter1"></feMorphology>
            <feOffset dx="-2" dy="4" in="shadowSpreadOuter1" result="shadowOffsetOuter1"></feOffset>
            <feGaussianBlur stdDeviation="25" in="shadowOffsetOuter1" result="shadowBlurOuter1"></feGaussianBlur>
            <feComposite in="shadowBlurOuter1" in2="SourceAlpha" operator="out" result="shadowBlurOuter1"></feComposite>
            <feColorMatrix values="0 0 0 0 0   0 0 0 0 0   0 0 0 0 0  0 0 0 0.5 0" type="matrix" in="shadowBlurOuter1"></feColorMatrix>
        </filter>
        <linearGradient x1="50%" y1="100%" x2="50%" y2="-5.55111512e-15%" id="linearGradient-3">
            <stop stop-color="#01579B" offset="0%"></stop>
            <stop stop-color="#0277BD" offset="100%"></stop>
            <stop stop-color="#0277BD" offset="100%"></stop>
        </linearGradient>
        <radialGradient cx="26.488894%" cy="19.6294596%" fx="26.488894%" fy="19.6294596%" r="81.1123446%" gradientTransform="translate(0.264889,0.196295),scale(1.000000,0.790441),rotate(61.597270),scale(1.000000,1.001204),translate(-0.264889,-0.196295)" id="radialGradient-4">
            <stop stop-color="#40C4FF" offset="0%"></stop>
            <stop stop-color="#0091EA" offset="100%"></stop>
        </radialGradient>
        <radialGradient cx="50%" cy="136.178078%" fx="50%" fy="136.178078%" r="190.60792%" gradientTransform="translate(0.500000,1.361781),scale(0.661362,1.000000),rotate(-90.000000),scale(1.000000,0.572439),translate(-0.500000,-1.361781)" id="radialGradient-5">
            <stop stop-color="#D5D5D5" offset="0%"></stop>
            <stop stop-color="#333333" offset="100%"></stop>
            <stop stop-color="#161616" offset="100%"></stop>
        </radialGradient>
        <radialGradient cx="58.9696516%" cy="193.717988%" fx="58.9696516%" fy="193.717988%" r="318.703808%" gradientTransform="translate(0.589697,1.937180),scale(0.661362,1.000000),rotate(-90.000000),scale(1.000000,0.463873),translate(-0.589697,-1.937180)" id="radialGradient-6">
            <stop stop-color="#D5D5D5" offset="0%"></stop>
            <stop stop-color="#161616" offset="99.9287373%"></stop>
        </radialGradient>
        <path d="M451.958705,568.262701 L533.42172,552 L533.42172,622.125246 C479.113044,648.310871 451.958705,661.403683 451.958705,661.403683 C451.958705,661.403683 423.97247,648.310871 368,622.125246 L368,552 L451.958705,568.262701 Z" id="path-7"></path>
        <radialGradient cx="50%" cy="136.178078%" fx="50%" fy="136.178078%" r="190.60792%" gradientTransform="translate(0.500000,1.361781),scale(0.646772,1.000000),rotate(-90.000000),scale(1.000000,0.572439),translate(-0.500000,-1.361781)" id="radialGradient-8">
            <stop stop-color="#D5D5D5" offset="0%"></stop>
            <stop stop-color="#333333" offset="100%"></stop>
            <stop stop-color="#161616" offset="100%"></stop>
        </radialGradient>
        <radialGradient cx="50%" cy="9.1073537%" fx="50%" fy="9.1073537%" r="37.6626178%" gradientTransform="translate(0.500000,0.091074),scale(0.646772,1.000000),rotate(90.000000),scale(1.000000,4.259586),translate(-0.500000,-0.091074)" id="radialGradient-9">
            <stop stop-color="#FBC02D" offset="0%"></stop>
            <stop stop-color="#F9A925" offset="0%"></stop>
            <stop stop-color="#F57F17" offset="99.9287373%"></stop>
        </radialGradient>
        <polygon id="path-10" points="452.311861 568.300923 524.583663 554 524.583663 616.483441 452.311861 649.452945 377 616.483441 377 554"></polygon>
    </defs>
    <g id="Page-1" stroke="none" stroke-width="1" fill="none" fill-rule="evenodd">
        <g id="Body_Shade" stroke-linejoin="bevel">
            <use fill="black" fill-opacity="1" filter="url(#filter-2)" xlink:href="#path-1"></use>
            <use stroke="#D5D5D5" stroke-width="2" fill="#232323" fill-rule="evenodd" xlink:href="#path-1"></use>
        </g>
        <ellipse id="EyeLeft_bck" stroke="#161616" stroke-width="3" fill="url(#linearGradient-3)" transform="translate(258.500000, 300.000000) rotate(14.000000) translate(-258.500000, -300.000000) " cx="258.5" cy="300" rx="107.5" ry="136"></ellipse>
        <ellipse id="EyeLeft" stroke="#161616" stroke-width="4" fill="url(#radialGradient-4)" transform="translate(240.500000, 287.000000) rotate(14.000000) translate(-240.500000, -287.000000) " cx="240.5" cy="287" rx="107.5" ry="136"></ellipse>
        <ellipse id="EyeRight_bck" stroke="#161616" stroke-width="4" fill="url(#radialGradient-4)" transform="translate(641.500000, 302.000000) scale(-1, 1) rotate(14.000000) translate(-641.500000, -302.000000) " cx="641.5" cy="302" rx="107.5" ry="136"></ellipse>
        <ellipse id="EyeLeft" stroke="#161616" stroke-width="4" fill="url(#radialGradient-4)" transform="translate(662.500000, 287.000000) scale(-1, 1) rotate(14.000000) translate(-662.500000, -287.000000) " cx="662.5" cy="287" rx="107.5" ry="136"></ellipse>
        <g id="Mounth_outter">
            <use fill="url(#radialGradient-5)" style="mix-blend-mode: darken;" xlink:href="#path-7"></use>
            <path stroke="#010101" stroke-width="1" d="M368.5,552.606143 L368.5,621.80715 C406.693102,639.675045 406.754219,639.703638 431.180904,651.131184 C440.801173,655.631839 440.801173,655.631839 446.923162,658.495891 C450.909347,660.36075 451.261821,660.525648 451.955469,660.850158 C452.625084,660.527294 452.97527,660.358447 456.832987,658.4984 C462.772998,655.634347 462.772998,655.634347 472.107302,651.133693 C495.807199,639.706484 495.867196,639.677555 532.92172,621.811241 L532.92172,552.609682 L452.05659,568.753026 L451.863623,568.753577 L368.5,552.606143 Z" stroke-linejoin="square" fill="url(#radialGradient-6)"></path>
        </g>
        <g id="Mounth_inner">
            <use fill="url(#radialGradient-8)" style="mix-blend-mode: darken;" xlink:href="#path-10"></use>
            <path stroke="#010101" stroke-width="1" d="M377.5,554.603879 L377.5,616.156515 L452.307658,648.905293 L524.083663,616.161965 L524.083663,554.608633 L452.408917,568.791413 L452.218583,568.792145 L377.5,554.603879 Z" stroke-linejoin="square" fill="url(#radialGradient-9)"></path>
        </g>
        <path d="M418,590 L429,590 M474,590 L484,590 M482,582 L483,582 M434,606 L467,606 M466,598 L475,598 M426,598 L435,598 M418,582 L420,582" id="Smile" stroke="#FFD600" stroke-width="6" stroke-linecap="square" stroke-dasharray="0,8"></path>
    </g>
</svg>