<?xml version="1.0" encoding="UTF-8"?>
<svg width="462px" height="90px" viewBox="0 0 462 90" version="1.1" xmlns="http://www.w3.org/2000/svg" xmlns:xlink="http://www.w3.org/1999/xlink">
    <!-- Generator: Sketch 61.2 (89653) - https://sketch.com -->
    <title>new_logo_alt</title>
    <desc>Created with Sketch.</desc>
    <g id="Page-1" stroke="none" stroke-width="1" fill="none" fill-rule="evenodd">
        <path d="M164.428,77.72 L164.428,88.024 L120.084,88.024 L120.084,77.72 L164.428,77.72 Z M82.96,12.4 L106.512,76.8 L93.816,76.8 L88.572,62.54 L65.94,62.54 L60.696,76.8 L48,76.8 L71.552,12.4 L82.96,12.4 Z M218.216,12.4 L229.256,23.44 L229.256,65.76 L218.216,76.8 L177,76.8 L177,12.4 L218.216,12.4 Z M403.792,12 L413.728,21.936 L413.728,31.228 L401.4,31.228 L401.4,25.708 L398.364,22.672 L380.148,22.672 L377.112,25.708 L377.112,35.184 L380.148,38.22 L404.528,38.22 L414.464,48.156 L414.464,66.28 L404.344,76.4 L374.536,76.4 L364.6,66.464 L364.6,57.264 L376.928,57.264 L376.928,62.692 L379.964,65.728 L399.008,65.728 L402.136,62.6 L402.136,51.928 L399.1,48.892 L374.72,48.892 L364.784,38.956 L364.784,21.936 L374.72,12 L403.792,12 Z M286.656,12 L286.656,22.58 L252.616,22.58 L252.616,38.864 L283.988,38.864 L283.988,49.26 L252.616,49.26 L252.616,65.82 L286.656,65.82 L286.656,76.4 L240.104,76.4 L240.104,12 L286.656,12 Z M310.8,12 L326.808,61.496 L326.992,61.496 L343,12 L355.88,12 L332.972,76.4 L320.828,76.4 L297.92,12 L310.8,12 Z M212.052,23.072 L189.512,23.072 L189.512,66.128 L212.052,66.128 L216.744,61.436 L216.744,27.764 L212.052,23.072 Z M77.256,27.764 L77.072,27.764 L68.792,52.236 L85.812,52.236 L77.256,27.764 Z" id="A_DEVS" stroke="#F5F5F5" stroke-width="2" fill="#F5F5F5" stroke-linecap="square"></path>
        <path d="M31.7616639,0.518629949 L31.7616639,11.2035272 L23.513673,11.2035272 L20.3269492,14.390251 L20.3269492,36.7910444 L13.4848659,43.8205821 L13.4848659,44.5703995 L20.3269492,51.5999372 L20.3269492,74.0944578 L23.513673,77.2811815 L31.7616639,77.2811815 L31.7616639,87.9660788 L17.8900428,87.9660788 L7.95496288,78.0309989 L7.95496288,54.6929337 L0.644243685,47.1947602 L0.644243685,41.1962214 L7.95496288,33.6980478 L7.95496288,10.4537099 L17.8900428,0.518629949 L31.7616639,0.518629949 Z M444.109957,0.518629949 L454.045037,10.4537099 L454.045037,33.6980478 L461.355756,41.1962214 L461.355756,47.1947602 L454.045037,54.6929337 L454.045037,78.0309989 L444.109957,87.9660788 L430.238336,87.9660788 L430.238336,77.2811815 L438.486327,77.2811815 L441.673051,74.0944578 L441.673051,51.5999372 L448.515134,44.5703995 L448.515134,43.8205821 L441.673051,36.7910444 L441.673051,14.390251 L438.486327,11.2035272 L430.238336,11.2035272 L430.238336,0.518629949 L444.109957,0.518629949 Z" id="{--}" fill="#FFD600"></path>
    </g>
</svg>