<?xml version="1.0" encoding="UTF-8"?>
<svg width="582px" height="193px" viewBox="0 0 582 193" version="1.1" xmlns="http://www.w3.org/2000/svg" xmlns:xlink="http://www.w3.org/1999/xlink">
    <!-- Generator: Sketch 61.2 (89653) - https://sketch.com -->
    <title>new_logo_alt</title>
    <desc>Created with Sketch.</desc>
    <g id="Page-1" stroke="none" stroke-width="1" fill="none" fill-rule="evenodd">
        <path d="M470.49,105.6 L480.426,115.536 L480.426,124.828 L468.098,124.828 L468.098,119.308 L465.062,116.272 L446.846,116.272 L443.81,119.308 L443.81,128.784 L446.846,131.82 L471.226,131.82 L481.162,141.756 L481.162,159.88 L471.042,170 L441.234,170 L431.298,160.064 L431.298,150.864 L443.626,150.864 L443.626,156.292 L446.662,159.328 L465.706,159.328 L468.834,156.2 L468.834,145.528 L465.798,142.492 L441.418,142.492 L431.482,132.556 L431.482,115.536 L441.418,105.6 L470.49,105.6 Z M336.9,105.6 L352.908,155.096 L353.092,155.096 L369.1,105.6 L381.98,105.6 L359.072,170 L346.928,170 L324.02,105.6 L336.9,105.6 Z M144.548,105.6 L155.588,116.64 L155.588,158.96 L144.548,170 L103.332,170 L103.332,105.6 L144.548,105.6 Z M264.656,104.6 L264.656,115.18 L230.616,115.18 L230.616,131.464 L261.988,131.464 L261.988,141.86 L230.616,141.86 L230.616,158.42 L264.656,158.42 L264.656,169 L218.104,169 L218.104,104.6 L264.656,104.6 Z M138.384,116.272 L115.844,116.272 L115.844,159.328 L138.384,159.328 L143.076,154.636 L143.076,120.964 L138.384,116.272 Z M471.318,22.6 L481.162,32.536 L481.162,52.04 L474.906,58.388 L481.53,65.656 L481.53,87 L469.018,87 L469.018,68.508 L463.498,62.344 L443.442,62.344 L443.442,87 L430.93,87 L430.93,22.6 L471.318,22.6 Z M410.656,22.6 L410.656,33.18 L376.616,33.18 L376.616,49.464 L407.988,49.464 L407.988,59.86 L376.616,59.86 L376.616,76.42 L410.656,76.42 L410.656,87 L364.104,87 L364.104,22.6 L410.656,22.6 Z M317.686,22.6 L317.686,76.42 L349.886,76.42 L349.886,87 L305.174,87 L305.174,22.6 L317.686,22.6 Z M276.548,22.6 L287.588,33.64 L287.588,75.96 L276.548,87 L235.332,87 L235.332,22.6 L276.548,22.6 Z M179.142,22.6 L207.846,66.3 L208.03,66.3 L208.03,22.6 L220.082,22.6 L220.082,87 L208.858,87 L180.154,43.392 L179.97,43.392 L179.97,87 L167.918,87 L167.918,22.6 L179.142,22.6 Z M134.704,22.6 L158.256,87 L145.56,87 L140.316,72.74 L117.684,72.74 L112.44,87 L99.744,87 L123.296,22.6 L134.704,22.6 Z M270.384,33.272 L247.844,33.272 L247.844,76.328 L270.384,76.328 L275.076,71.636 L275.076,37.964 L270.384,33.272 Z M129,37.964 L128.816,37.964 L120.536,62.436 L137.556,62.436 L129,37.964 Z M465.614,33.088 L443.442,33.088 L443.442,52.04 L465.614,52.04 L468.834,48.82 L468.834,36.308 L465.614,33.088 Z" id="Andler-Devs" fill="#F5F5F5"></path>
        <path d="M68.4185599,2.84217094e-14 L68.4185599,23.4931199 L50.2835199,23.4931199 L43.2767999,30.4998399 L43.2767999,79.7529598 L28.2329599,95.2089598 L28.2329599,96.8575998 L43.2767999,112.3136 L43.2767999,161.7728 L50.2835199,168.77952 L68.4185599,168.77952 L68.4185599,192.27264 L37.9187199,192.27264 L16.07424,170.42816 L16.07424,119.11424 L0,102.62784 L0,89.4387198 L16.07424,72.9523198 L16.07424,21.84448 L37.9187199,2.84217094e-14 L68.4185599,2.84217094e-14 Z M543.40864,2.84217094e-14 L565.25312,21.84448 L565.25312,72.9523198 L581.32736,89.4387198 L581.32736,102.62784 L565.25312,119.11424 L565.25312,170.42816 L543.40864,192.27264 L512.9088,192.27264 L512.9088,168.77952 L531.04384,168.77952 L538.05056,161.7728 L538.05056,112.3136 L553.0944,96.8575998 L553.0944,95.2089598 L538.05056,79.7529598 L538.05056,30.4998399 L531.04384,23.4931199 L512.9088,23.4931199 L512.9088,2.84217094e-14 L543.40864,2.84217094e-14 Z" id="{--}" fill="#FFD600"></path>
    </g>
</svg>